<svg width="1430" height="339" viewBox="0 0 1430 339" fill="none" xmlns="http://www.w3.org/2000/svg">
<rect x="0.399765" y="-0.399765" width="90.3469" height="0.79953" rx="0.399765" transform="matrix(1 0 0 -1 415.758 168.7)" fill="black" fill-opacity="0.01"/>
<rect x="0.399765" y="-0.399765" width="90.3469" height="0.79953" rx="0.399765" transform="matrix(1 0 0 -1 415.758 168.7)" stroke="#303030" stroke-width="0.79953"/>
<rect x="0.399765" y="-0.399765" width="90.3469" height="0.79953" rx="0.399765" transform="matrix(1 0 0 -1 921.059 167.103)" fill="black" fill-opacity="0.01"/>
<rect x="0.399765" y="-0.399765" width="90.3469" height="0.79953" rx="0.399765" transform="matrix(1 0 0 -1 921.059 167.103)" stroke="#303030" stroke-width="0.79953"/>
<rect x="0.75" y="0.75" width="420.652" height="335.902" rx="22.25" fill="black" fill-opacity="0.01"/>
<rect x="0.75" y="0.75" width="420.652" height="335.902" rx="22.25" stroke="#303030" stroke-width="1.5"/>
<rect x="49.2227" y="28" width="108.994" height="13.8405" rx="6.92025" fill="#D9D9D9" fill-opacity="0.16"/>
<rect x="64.793" y="52.2207" width="205.877" height="13.8405" rx="6.92025" fill="#D9D9D9" fill-opacity="0.16"/>
<rect x="64.793" y="76.4414" width="332.172" height="13.8405" rx="6.92025" fill="#D9D9D9" fill-opacity="0.16"/>
<rect x="76.9023" y="100.662" width="167.816" height="13.8405" rx="6.92025" fill="#D9D9D9" fill-opacity="0.16"/>
<rect x="76.9023" y="124.883" width="167.816" height="13.8405" rx="6.92025" fill="#D9D9D9" fill-opacity="0.16"/>
<rect x="49.2227" y="149.104" width="167.816" height="13.8405" rx="6.92025" fill="#D9D9D9" fill-opacity="0.16"/>
<rect x="64.793" y="173.324" width="320.061" height="13.8405" rx="6.92025" fill="#D9D9D9" fill-opacity="0.16"/>
<rect x="64.793" y="197.547" width="233.558" height="13.8405" rx="6.92025" fill="#D9D9D9" fill-opacity="0.16"/>
<rect x="64.793" y="221.768" width="179.926" height="13.8405" rx="6.92025" fill="#D9D9D9" fill-opacity="0.16"/>
<rect x="76.9023" y="245.988" width="112.454" height="13.8405" rx="6.92025" fill="#D9D9D9" fill-opacity="0.16"/>
<rect x="76.9023" y="271.939" width="190.307" height="13.8405" rx="6.92025" fill="#D9D9D9" fill-opacity="0.16"/>
<rect x="76.9023" y="296.16" width="216.258" height="13.8405" rx="6.92025" fill="#D9D9D9" fill-opacity="0.16"/>
<circle cx="31.9202" cy="34.9202" r="6.92025" fill="#D9D9D9" fill-opacity="0.16"/>
<circle cx="31.9202" cy="180.244" r="6.92025" fill="#D9D9D9" fill-opacity="0.16"/>
<circle cx="31.9202" cy="107.582" r="6.92025" fill="#D9D9D9" fill-opacity="0.16"/>
<circle cx="31.9202" cy="252.909" r="6.92025" fill="#D9D9D9" fill-opacity="0.16"/>
<circle cx="31.9202" cy="59.1409" r="6.92025" fill="#D9D9D9" fill-opacity="0.16"/>
<circle cx="31.9202" cy="204.467" r="6.92025" fill="#D9D9D9" fill-opacity="0.16"/>
<circle cx="31.9202" cy="131.803" r="6.92025" fill="#D9D9D9" fill-opacity="0.16"/>
<circle cx="31.9202" cy="277.129" r="6.92025" fill="#D9D9D9" fill-opacity="0.16"/>
<circle cx="31.9202" cy="83.3616" r="6.92025" fill="#D9D9D9" fill-opacity="0.16"/>
<circle cx="31.9202" cy="228.688" r="6.92025" fill="#D9D9D9" fill-opacity="0.16"/>
<circle cx="31.9202" cy="156.024" r="6.92025" fill="#D9D9D9" fill-opacity="0.16"/>
<circle cx="31.9202" cy="301.35" r="6.92025" fill="#D9D9D9" fill-opacity="0.16"/>
<rect x="139" y="136" width="144" height="58" rx="8" fill="#1F87FC"/>
<path d="M187.356 169.316C186.615 169.019 186.166 168.488 186.007 167.723C185.849 166.958 186.042 166.292 186.586 165.725L194.052 157.912C194.564 157.377 195.175 156.988 195.886 156.745C196.597 156.503 197.319 156.459 198.055 156.612L201.919 157.328C199.953 159.849 198.341 162.135 197.082 164.184C195.823 166.234 194.572 168.748 193.329 171.728L187.356 169.316ZM196.964 173.426C196.576 173.055 196.379 172.618 196.373 172.116C196.367 171.613 196.463 171.117 196.662 170.628C197.886 167.914 199.137 165.52 200.415 163.446C201.694 161.375 203.366 159.259 205.431 157.098C208.513 153.874 211.853 151.374 215.45 149.6C219.047 147.825 222.971 146.849 227.223 146.671C227.533 146.638 227.825 146.685 228.099 146.813C228.371 146.939 228.614 147.104 228.827 147.307C229.041 147.511 229.216 147.746 229.355 148.013C229.493 148.279 229.554 148.57 229.538 148.884C229.554 153.138 228.757 157.101 227.147 160.775C225.538 164.449 223.191 167.899 220.106 171.127C218.011 173.32 215.977 175.092 214.005 176.445C212.033 177.797 209.694 179.148 206.988 180.496C206.508 180.717 206.017 180.836 205.515 180.852C205.012 180.869 204.567 180.692 204.181 180.323L196.964 173.426ZM212.552 164.337C213.391 165.139 214.372 165.526 215.495 165.499C216.618 165.475 217.581 165.044 218.382 164.205C219.184 163.366 219.571 162.386 219.544 161.262C219.518 160.139 219.086 159.177 218.25 158.375C217.414 157.574 216.433 157.186 215.307 157.213C214.184 157.237 213.222 157.669 212.42 158.507C211.619 159.346 211.231 160.327 211.258 161.45C211.285 162.573 211.716 163.536 212.552 164.337ZM208.644 189.737L205.966 183.877C208.887 182.501 211.348 181.131 213.349 179.769C215.351 178.407 217.567 176.684 219.998 174.602L220.852 178.471C221.038 179.199 221.027 179.923 220.818 180.644C220.609 181.367 220.248 181.996 219.737 182.531L212.272 190.341C211.728 190.911 211.07 191.134 210.299 191.01C209.527 190.886 208.976 190.461 208.646 189.735" fill="white"/>
<rect x="504.453" y="0.75" width="420.652" height="335.902" rx="22.25" fill="black" fill-opacity="0.01"/>
<rect x="504.453" y="0.75" width="420.652" height="335.902" rx="22.25" stroke="#303030" stroke-width="1.5"/>
<rect x="535.621" y="94.9453" width="358.057" height="111.791" rx="8" fill="#D9D9D9" fill-opacity="0.16"/>
<rect x="535.621" y="222.939" width="108.551" height="81.0083" rx="8" fill="#D9D9D9" fill-opacity="0.16"/>
<rect x="764.062" y="44.7207" width="27.5428" height="14.5815" rx="2" fill="#D9D9D9" fill-opacity="0.16"/>
<rect x="799.707" y="44.7207" width="27.5428" height="14.5815" rx="2" fill="#D9D9D9" fill-opacity="0.16"/>
<rect x="833.73" y="44.7207" width="27.5428" height="14.5815" rx="2" fill="#D9D9D9" fill-opacity="0.16"/>
<rect x="867.754" y="44.7207" width="27.5428" height="14.5815" rx="2" fill="#888888" fill-opacity="0.16"/>
<circle cx="551.822" cy="52.8218" r="17.8218" fill="#D9D9D9" fill-opacity="0.16"/>
<rect x="660.371" y="222.939" width="108.551" height="81.0083" rx="8" fill="#D9D9D9" fill-opacity="0.16"/>
<rect x="785.125" y="222.939" width="108.551" height="81.0083" rx="8" fill="#D9D9D9" fill-opacity="0.16"/>
<rect x="1008.16" y="2.34766" width="420.652" height="335.902" rx="22.25" fill="black" fill-opacity="0.01"/>
<rect x="1008.16" y="2.34766" width="420.652" height="335.902" rx="22.25" stroke="#303030" stroke-width="1.5"/>
<path d="M1048 197.78L1074.78 231.654L1088.18 217.475L1099.99 213.536L1114.17 223.777L1127.56 192.266L1140.96 196.993L1155.14 185.964L1166.95 191.478L1179.56 185.176L1183.5 180.45L1192.95 170.209L1207.92 159.968L1221.31 176.511L1235.49 180.45L1248.09 173.36L1262.27 175.723L1272.51 166.27L1288.27 157.604L1301.66 169.421L1314.27 159.968H1328.45L1341.05 145.788L1354.44 154.453L1366.26 145.788L1381.23 145L1388.32 151.302L1387.53 299.402H1048.79L1048 197.78Z" fill="#380416"/>
<path d="M1048 241.107L1057.45 237.168L1083.45 249.772L1096.05 238.743H1122.05L1135.44 249.772H1148.83L1161.44 232.441L1187.43 244.258L1199.25 230.078L1212.64 216.686L1225.25 222.988L1238.64 216.686L1250.46 220.625L1264.64 216.686L1277.24 227.715H1290.63L1303.24 198.567L1317.42 188.326L1323.72 182.024L1329.23 175.722L1341.84 173.359L1354.44 167.057L1367.83 175.722L1380.44 167.057L1388.32 170.208L1387.53 299.402H1048.79L1048 241.107Z" fill="#3A1E0D"/>
<path d="M1048.79 265.529L1057.45 263.953L1083.45 267.892L1096.06 252.137H1109.45L1135.44 267.892H1148.05L1161.44 261.59L1187.44 266.317L1201.62 260.015L1213.43 256.076L1226.04 259.227L1237.85 256.076L1250.46 257.651L1263.85 256.076L1277.24 260.015H1291.42L1304.81 248.986L1327.66 241.896L1346.57 240.32L1356.81 237.957L1369.41 241.896L1382.8 237.957L1387.53 240.32V299.403H1048.79V265.529Z" fill="#041648"/>
<path d="M1048.79 271.043L1059.03 271.831H1085.03H1099.21H1109.45L1135.44 274.982L1160.65 273.406L1173.26 275.77H1189.01L1200.04 278.133L1223.67 276.557L1244.94 275.77L1264.64 274.194L1277.24 274.982L1289.85 273.406L1309.54 272.619L1316.63 271.043L1329.23 271.831L1342.63 272.619L1354.44 271.043L1366.26 272.619L1387.53 273.406V299.403H1048.79V271.043Z" fill="#042114"/>
<path d="M1048.79 271.831H1083.45H1109.45L1135.44 274.982L1161.44 273.406L1174.04 275.77H1188.22L1199.25 278.133L1229.98 276.557L1263.85 274.194L1278.03 274.982L1289.85 273.406L1309.54 272.619L1316.63 271.043L1343.41 272.619L1354.44 271.043L1366.26 272.619L1387.53 273.406" stroke="#17B877" stroke-width="1.5"/>
<path d="M1048.79 265.529L1057.45 263.953L1083.45 267.892L1096.06 252.137H1109.45L1135.44 267.892H1148.84L1161.44 261.59L1187.44 266.317L1200.83 260.015L1213.43 256.076L1226.04 259.227L1238.64 256.076L1251.25 257.651L1264.64 256.076L1277.24 260.015H1291.42L1304.81 248.986L1329.23 241.896L1347.35 240.32L1356.02 237.957L1368.62 241.896L1382.01 237.957L1387.53 240.32" stroke="#708FFF" stroke-width="1.5"/>
<path d="M1048.79 196.993L1074.79 231.654L1088.18 217.475L1099.99 213.536L1114.17 223.777L1127.57 191.478L1140.96 196.993L1155.14 185.964L1167.74 191.478L1180.35 184.388L1192.95 169.421L1207.92 159.968L1221.31 176.511L1235.49 180.45L1248.09 173.36L1262.27 176.511L1272.51 166.27L1288.27 156.817L1301.66 169.421L1314.27 159.968H1328.45L1341.05 145L1354.44 154.453L1366.26 145H1381.23L1388.32 150.514" stroke="#F96E8C" stroke-width="1.5"/>
<path d="M1048.79 241.895L1057.45 237.168L1083.45 249.772L1096.06 238.743H1122.05L1135.44 249.772H1148.84L1161.44 231.654L1187.44 244.258L1199.25 229.29L1212.64 216.686L1226.04 222.988L1238.64 216.686L1251.25 220.625L1264.64 216.686L1277.24 227.715H1290.63L1303.24 198.567L1317.42 188.326L1329.23 175.722L1342.63 173.359L1354.44 167.057L1367.83 175.722L1380.44 167.057L1387.53 170.208" stroke="#FFA23E" stroke-width="1.5"/>
<path fill-rule="evenodd" clip-rule="evenodd" d="M1060.18 78.3534C1062.07 78.3534 1063.94 77.9812 1065.69 77.2579C1067.43 76.5347 1069.02 75.4746 1070.36 74.1382C1071.69 72.8018 1072.75 71.2153 1073.48 69.4693C1074.2 67.7232 1074.57 65.8518 1074.57 63.9619C1074.57 62.0719 1074.2 60.2005 1073.48 58.4545C1072.75 56.7084 1071.69 55.1219 1070.36 53.7855C1069.02 52.4491 1067.43 51.389 1065.69 50.6658C1063.94 49.9426 1062.07 49.5703 1060.18 49.5703C1056.36 49.5703 1052.7 51.0866 1050 53.7855C1047.31 56.4844 1045.79 60.145 1045.79 63.9619C1045.79 67.7787 1047.31 71.4393 1050 74.1382C1052.7 76.8372 1056.36 78.3534 1060.18 78.3534ZM1059.81 69.7824L1067.8 60.1881L1065.35 58.1413L1058.47 66.3908L1054.91 62.8313L1052.65 65.0924L1057.45 69.8896L1058.69 71.1272L1059.81 69.7824Z" fill="#34A853"/>
<path d="M1099.25 71H1094.76V56.4545H1099.45C1100.86 56.4545 1102.07 56.7457 1103.07 57.3281C1104.07 57.9058 1104.84 58.7367 1105.38 59.821C1105.91 60.9006 1106.18 62.1932 1106.18 63.6989C1106.18 65.214 1105.91 66.5185 1105.37 67.6122C1104.83 68.7012 1104.05 69.5393 1103.01 70.1264C1101.98 70.7088 1100.73 71 1099.25 71ZM1096.52 69.4375H1099.14C1100.34 69.4375 1101.34 69.2055 1102.13 68.7415C1102.92 68.2775 1103.51 67.617 1103.89 66.7599C1104.28 65.9029 1104.48 64.8826 1104.48 63.6989C1104.48 62.5246 1104.29 61.5137 1103.9 60.6662C1103.52 59.8139 1102.95 59.1605 1102.18 58.706C1101.42 58.2467 1100.47 58.017 1099.34 58.017H1096.52V69.4375ZM1113.48 71.2273C1112.43 71.2273 1111.53 70.9953 1110.76 70.5312C1110.01 70.0625 1109.42 69.4091 1109.01 68.571C1108.6 67.7282 1108.4 66.7481 1108.4 65.6307C1108.4 64.5133 1108.6 63.5284 1109.01 62.6761C1109.42 61.8191 1109.99 61.1515 1110.73 60.6733C1111.47 60.1903 1112.33 59.9489 1113.31 59.9489C1113.88 59.9489 1114.44 60.0436 1115 60.233C1115.55 60.4223 1116.05 60.7301 1116.51 61.1562C1116.96 61.5777 1117.33 62.1364 1117.6 62.8324C1117.87 63.5284 1118 64.3854 1118 65.4034V66.1136H1109.59V64.6648H1116.3C1116.3 64.0492 1116.17 63.5 1115.93 63.017C1115.68 62.5341 1115.34 62.1529 1114.89 61.8736C1114.44 61.5942 1113.92 61.4545 1113.31 61.4545C1112.64 61.4545 1112.07 61.6203 1111.58 61.9517C1111.1 62.2784 1110.72 62.7045 1110.46 63.2301C1110.2 63.7557 1110.07 64.3191 1110.07 64.9205V65.8864C1110.07 66.7102 1110.22 67.4086 1110.5 67.9815C1110.79 68.5497 1111.19 68.983 1111.7 69.2812C1112.21 69.5748 1112.81 69.7216 1113.48 69.7216C1113.92 69.7216 1114.32 69.66 1114.68 69.5369C1115.04 69.4091 1115.35 69.2197 1115.61 68.9688C1115.87 68.7131 1116.07 68.3958 1116.21 68.017L1117.83 68.4716C1117.66 69.0208 1117.37 69.5038 1116.97 69.9205C1116.57 70.3324 1116.07 70.6544 1115.48 70.8864C1114.89 71.1136 1114.22 71.2273 1113.48 71.2273ZM1120.55 75.0909V60.0909H1122.17V61.8239H1122.37C1122.49 61.6345 1122.66 61.393 1122.88 61.0994C1123.1 60.8011 1123.42 60.536 1123.83 60.304C1124.25 60.0672 1124.81 59.9489 1125.52 59.9489C1126.44 59.9489 1127.25 60.1785 1127.95 60.6378C1128.65 61.0971 1129.2 61.7481 1129.59 62.5909C1129.98 63.4337 1130.18 64.428 1130.18 65.5739C1130.18 66.7292 1129.98 67.7306 1129.59 68.5781C1129.2 69.4209 1128.65 70.0743 1127.96 70.5384C1127.26 70.9976 1126.46 71.2273 1125.55 71.2273C1124.85 71.2273 1124.29 71.1113 1123.87 70.8793C1123.45 70.6425 1123.12 70.375 1122.89 70.0767C1122.67 69.7737 1122.49 69.5227 1122.37 69.3239H1122.23V75.0909H1120.55ZM1122.2 65.5455C1122.2 66.3693 1122.32 67.0961 1122.56 67.7259C1122.8 68.3509 1123.15 68.8409 1123.62 69.196C1124.08 69.5464 1124.65 69.7216 1125.32 69.7216C1126.02 69.7216 1126.61 69.5369 1127.08 69.1676C1127.55 68.7936 1127.91 68.2917 1128.14 67.6619C1128.38 67.0275 1128.5 66.322 1128.5 65.5455C1128.5 64.7784 1128.39 64.0871 1128.15 63.4716C1127.92 62.8513 1127.56 62.3613 1127.09 62.0014C1126.62 61.6368 1126.03 61.4545 1125.32 61.4545C1124.64 61.4545 1124.07 61.6274 1123.6 61.973C1123.14 62.3139 1122.79 62.7921 1122.55 63.4077C1122.32 64.0185 1122.2 64.7311 1122.2 65.5455ZM1134.41 56.4545V71H1132.74V56.4545H1134.41ZM1141.92 71.2273C1140.93 71.2273 1140.07 70.9929 1139.32 70.5241C1138.58 70.0554 1138.01 69.3996 1137.59 68.5568C1137.18 67.714 1136.97 66.7292 1136.97 65.6023C1136.97 64.4659 1137.18 63.474 1137.59 62.6264C1138.01 61.7789 1138.58 61.1207 1139.32 60.652C1140.07 60.1832 1140.93 59.9489 1141.92 59.9489C1142.9 59.9489 1143.76 60.1832 1144.5 60.652C1145.24 61.1207 1145.82 61.7789 1146.23 62.6264C1146.65 63.474 1146.86 64.4659 1146.86 65.6023C1146.86 66.7292 1146.65 67.714 1146.23 68.5568C1145.82 69.3996 1145.24 70.0554 1144.5 70.5241C1143.76 70.9929 1142.9 71.2273 1141.92 71.2273ZM1141.92 69.7216C1142.66 69.7216 1143.28 69.5298 1143.76 69.1463C1144.24 68.7628 1144.6 68.2585 1144.83 67.6335C1145.07 67.0085 1145.18 66.3314 1145.18 65.6023C1145.18 64.8731 1145.07 64.1937 1144.83 63.5639C1144.6 62.9342 1144.24 62.4252 1143.76 62.0369C1143.28 61.6487 1142.66 61.4545 1141.92 61.4545C1141.17 61.4545 1140.55 61.6487 1140.07 62.0369C1139.59 62.4252 1139.23 62.9342 1139 63.5639C1138.76 64.1937 1138.65 64.8731 1138.65 65.6023C1138.65 66.3314 1138.76 67.0085 1139 67.6335C1139.23 68.2585 1139.59 68.7628 1140.07 69.1463C1140.55 69.5298 1141.17 69.7216 1141.92 69.7216ZM1150.11 75.0909C1149.82 75.0909 1149.57 75.0672 1149.35 75.0199C1149.12 74.9773 1148.97 74.9347 1148.88 74.892L1149.31 73.4148C1149.72 73.5189 1150.08 73.5568 1150.39 73.5284C1150.7 73.5 1150.98 73.3603 1151.22 73.1094C1151.47 72.8632 1151.69 72.4631 1151.9 71.9091L1152.21 71.0568L1148.17 60.0909H1149.99L1153 68.7841H1153.12L1156.13 60.0909H1157.95L1153.32 72.5909C1153.11 73.1544 1152.85 73.6207 1152.54 73.9901C1152.23 74.3641 1151.88 74.6411 1151.47 74.821C1151.07 75.0009 1150.61 75.0909 1150.11 75.0909ZM1164.34 71.2273C1163.29 71.2273 1162.38 70.9953 1161.62 70.5312C1160.86 70.0625 1160.28 69.4091 1159.87 68.571C1159.46 67.7282 1159.26 66.7481 1159.26 65.6307C1159.26 64.5133 1159.46 63.5284 1159.87 62.6761C1160.28 61.8191 1160.85 61.1515 1161.59 60.6733C1162.33 60.1903 1163.19 59.9489 1164.17 59.9489C1164.74 59.9489 1165.3 60.0436 1165.86 60.233C1166.41 60.4223 1166.91 60.7301 1167.37 61.1562C1167.82 61.5777 1168.18 62.1364 1168.45 62.8324C1168.72 63.5284 1168.86 64.3854 1168.86 65.4034V66.1136H1160.45V64.6648H1167.15C1167.15 64.0492 1167.03 63.5 1166.79 63.017C1166.54 62.5341 1166.2 62.1529 1165.75 61.8736C1165.3 61.5942 1164.78 61.4545 1164.17 61.4545C1163.5 61.4545 1162.93 61.6203 1162.44 61.9517C1161.96 62.2784 1161.58 62.7045 1161.32 63.2301C1161.06 63.7557 1160.93 64.3191 1160.93 64.9205V65.8864C1160.93 66.7102 1161.08 67.4086 1161.36 67.9815C1161.65 68.5497 1162.05 68.983 1162.56 69.2812C1163.07 69.5748 1163.67 69.7216 1164.34 69.7216C1164.78 69.7216 1165.18 69.66 1165.54 69.5369C1165.9 69.4091 1166.21 69.2197 1166.47 68.9688C1166.73 68.7131 1166.93 68.3958 1167.07 68.017L1168.69 68.4716C1168.52 69.0208 1168.23 69.5038 1167.83 69.9205C1167.43 70.3324 1166.93 70.6544 1166.34 70.8864C1165.75 71.1136 1165.08 71.2273 1164.34 71.2273ZM1175.53 71.2273C1174.62 71.2273 1173.82 70.9976 1173.12 70.5384C1172.42 70.0743 1171.88 69.4209 1171.49 68.5781C1171.09 67.7306 1170.9 66.7292 1170.9 65.5739C1170.9 64.428 1171.09 63.4337 1171.49 62.5909C1171.88 61.7481 1172.43 61.0971 1173.13 60.6378C1173.83 60.1785 1174.64 59.9489 1175.56 59.9489C1176.27 59.9489 1176.83 60.0672 1177.24 60.304C1177.66 60.536 1177.97 60.8011 1178.19 61.0994C1178.41 61.393 1178.59 61.6345 1178.71 61.8239H1178.85V56.4545H1180.53V71H1178.91V69.3239H1178.71C1178.59 69.5227 1178.41 69.7737 1178.18 70.0767C1177.96 70.375 1177.63 70.6425 1177.21 70.8793C1176.79 71.1113 1176.23 71.2273 1175.53 71.2273ZM1175.76 69.7216C1176.43 69.7216 1177 69.5464 1177.46 69.196C1177.92 68.8409 1178.28 68.3509 1178.52 67.7259C1178.76 67.0961 1178.88 66.3693 1178.88 65.5455C1178.88 64.7311 1178.76 64.0185 1178.53 63.4077C1178.29 62.7921 1177.94 62.3139 1177.47 61.973C1177.01 61.6274 1176.44 61.4545 1175.76 61.4545C1175.05 61.4545 1174.45 61.6368 1173.98 62.0014C1173.51 62.3613 1173.16 62.8513 1172.92 63.4716C1172.69 64.0871 1172.57 64.7784 1172.57 65.5455C1172.57 66.322 1172.69 67.0275 1172.93 67.6619C1173.17 68.2917 1173.53 68.7936 1173.99 69.1676C1174.47 69.5369 1175.05 69.7216 1175.76 69.7216Z" fill="#34A853"/>
</svg>
