<svg width="894" height="212" viewBox="0 0 894 212" fill="none" xmlns="http://www.w3.org/2000/svg">
<rect x="0.25" y="-0.25" width="56.5" height="0.5" rx="0.25" transform="matrix(1 0 0 -1 260 105.5)" fill="black" fill-opacity="0.01"/>
<rect x="0.25" y="-0.25" width="56.5" height="0.5" rx="0.25" transform="matrix(1 0 0 -1 260 105.5)" stroke="#303030" stroke-width="0.5"/>
<rect x="0.25" y="-0.25" width="56.5" height="0.5" rx="0.25" transform="matrix(1 0 0 -1 576 104.5)" fill="black" fill-opacity="0.01"/>
<rect x="0.25" y="-0.25" width="56.5" height="0.5" rx="0.25" transform="matrix(1 0 0 -1 576 104.5)" stroke="#303030" stroke-width="0.5"/>
<rect x="0.75" y="0.75" width="262.5" height="209.5" rx="22.25" fill="black" fill-opacity="0.01"/>
<rect x="0.75" y="0.75" width="262.5" height="209.5" rx="22.25" stroke="#303030" stroke-width="1.5"/>
<rect x="39" y="24" width="63" height="8" rx="4" fill="#D9D9D9" fill-opacity="0.16"/>
<rect x="48" y="38" width="119" height="8" rx="4" fill="#D9D9D9" fill-opacity="0.16"/>
<rect x="48" y="52" width="192" height="8" rx="4" fill="#D9D9D9" fill-opacity="0.16"/>
<rect x="55" y="66" width="97" height="8" rx="4" fill="#D9D9D9" fill-opacity="0.16"/>
<rect x="55" y="80" width="97" height="8" rx="4" fill="#D9D9D9" fill-opacity="0.16"/>
<rect x="39" y="94" width="97" height="8" rx="4" fill="#D9D9D9" fill-opacity="0.16"/>
<rect x="48" y="108" width="185" height="8" rx="4" fill="#D9D9D9" fill-opacity="0.16"/>
<rect x="48" y="122" width="135" height="8" rx="4" fill="#D9D9D9" fill-opacity="0.16"/>
<rect x="48" y="136" width="104" height="8" rx="4" fill="#D9D9D9" fill-opacity="0.16"/>
<rect x="55" y="150" width="65" height="8" rx="4" fill="#D9D9D9" fill-opacity="0.16"/>
<rect x="55" y="165" width="110" height="8" rx="4" fill="#D9D9D9" fill-opacity="0.16"/>
<rect x="55" y="179" width="125" height="8" rx="4" fill="#D9D9D9" fill-opacity="0.16"/>
<circle cx="29" cy="28" r="4" fill="#D9D9D9" fill-opacity="0.16"/>
<circle cx="29" cy="112" r="4" fill="#D9D9D9" fill-opacity="0.16"/>
<circle cx="29" cy="70" r="4" fill="#D9D9D9" fill-opacity="0.16"/>
<circle cx="29" cy="154" r="4" fill="#D9D9D9" fill-opacity="0.16"/>
<circle cx="29" cy="42" r="4" fill="#D9D9D9" fill-opacity="0.16"/>
<circle cx="29" cy="126" r="4" fill="#D9D9D9" fill-opacity="0.16"/>
<circle cx="29" cy="84" r="4" fill="#D9D9D9" fill-opacity="0.16"/>
<circle cx="29" cy="168" r="4" fill="#D9D9D9" fill-opacity="0.16"/>
<circle cx="29" cy="56" r="4" fill="#D9D9D9" fill-opacity="0.16"/>
<circle cx="29" cy="140" r="4" fill="#D9D9D9" fill-opacity="0.16"/>
<circle cx="29" cy="98" r="4" fill="#D9D9D9" fill-opacity="0.16"/>
<circle cx="29" cy="182" r="4" fill="#D9D9D9" fill-opacity="0.16"/>
<rect x="74" y="82" width="116" height="47" rx="8" fill="#1F87FC"/>
<path d="M119.189 106.307C118.815 106.157 118.589 105.889 118.509 105.503C118.429 105.117 118.526 104.781 118.801 104.495L122.566 100.555C122.824 100.285 123.132 100.089 123.491 99.9667C123.849 99.8448 124.214 99.8225 124.585 99.8997L126.534 100.261C125.542 101.532 124.729 102.685 124.094 103.718C123.459 104.752 122.828 106.02 122.201 107.523L119.189 106.307ZM124.035 108.38C123.839 108.192 123.74 107.972 123.736 107.719C123.733 107.465 123.782 107.215 123.882 106.968C124.5 105.599 125.131 104.392 125.775 103.346C126.42 102.302 127.263 101.235 128.305 100.145C129.859 98.5185 131.543 97.2579 133.358 96.363C135.172 95.4682 137.151 94.9758 139.295 94.8861C139.451 94.8694 139.599 94.8932 139.737 94.9574C139.874 95.021 139.997 95.1042 140.104 95.207C140.212 95.3098 140.3 95.4284 140.37 95.5628C140.44 95.6972 140.471 95.8436 140.462 96.002C140.471 98.1473 140.069 100.146 139.257 101.999C138.445 103.852 137.261 105.592 135.706 107.22C134.649 108.326 133.623 109.22 132.629 109.902C131.634 110.584 130.455 111.265 129.09 111.945C128.848 112.056 128.6 112.116 128.347 112.125C128.094 112.133 127.869 112.044 127.674 111.858L124.035 108.38ZM131.896 103.796C132.319 104.2 132.814 104.395 133.38 104.382C133.947 104.37 134.432 104.152 134.836 103.729C135.241 103.306 135.436 102.811 135.423 102.245C135.409 101.678 135.191 101.193 134.77 100.789C134.348 100.385 133.853 100.189 133.286 100.203C132.719 100.215 132.234 100.432 131.83 100.855C131.425 101.278 131.23 101.773 131.243 102.34C131.257 102.906 131.475 103.391 131.896 103.796ZM129.925 116.606L128.575 113.65C130.048 112.956 131.289 112.265 132.298 111.578C133.308 110.891 134.425 110.023 135.651 108.972L136.082 110.924C136.176 111.291 136.17 111.656 136.065 112.019C135.959 112.384 135.777 112.701 135.52 112.971L131.755 116.91C131.48 117.198 131.149 117.31 130.76 117.248C130.371 117.185 130.093 116.971 129.926 116.605" fill="white"/>
<rect x="315.75" y="0.75" width="262.5" height="209.5" rx="22.25" fill="black" fill-opacity="0.01"/>
<rect x="315.75" y="0.75" width="262.5" height="209.5" rx="22.25" stroke="#303030" stroke-width="1.5"/>
<rect x="337" y="59" width="221" height="69" rx="8" fill="#D9D9D9" fill-opacity="0.16"/>
<rect x="337" y="138" width="67" height="50" rx="8" fill="#D9D9D9" fill-opacity="0.16"/>
<rect x="478" y="28" width="17" height="9" rx="2" fill="#D9D9D9" fill-opacity="0.16"/>
<rect x="500" y="28" width="17" height="9" rx="2" fill="#D9D9D9" fill-opacity="0.16"/>
<rect x="521" y="28" width="17" height="9" rx="2" fill="#D9D9D9" fill-opacity="0.16"/>
<rect x="542" y="28" width="17" height="9" rx="2" fill="#888888" fill-opacity="0.16"/>
<circle cx="347" cy="33" r="11" fill="#D9D9D9" fill-opacity="0.16"/>
<rect x="414" y="138" width="67" height="50" rx="8" fill="#D9D9D9" fill-opacity="0.16"/>
<rect x="491" y="138" width="67" height="50" rx="8" fill="#D9D9D9" fill-opacity="0.16"/>
<rect x="630.75" y="1.75" width="262.5" height="209.5" rx="22.25" fill="black" fill-opacity="0.01"/>
<rect x="630.75" y="1.75" width="262.5" height="209.5" rx="22.25" stroke="#303030" stroke-width="1.5"/>
<path d="M654 125.5L671 147L679.5 138L687 135.5L696 142L704.5 122L713 125L722 118L729.5 121.5L737.5 117.5L740 114.5L746 108L755.5 101.5L764 112L773 114.5L781 110L790 111.5L796.5 105.5L806.5 100L815 107.5L823 101.5H832L840 92.5L848.5 98L856 92.5L865.5 92L870 96L869.5 190H654.5L654 125.5Z" fill="#380416"/>
<path d="M654 153L660 150.5L676.5 158.5L684.5 151.5H701L709.5 158.5H718L726 147.5L742.5 155L750 146L758.5 137.5L766.5 141.5L775 137.5L782.5 140L791.5 137.5L799.5 144.5H808L816 126L825 119.5L829 115.5L832.5 111.5L840.5 110L848.5 106L857 111.5L865 106L870 108L869.5 190H654.5L654 153Z" fill="#3A1E0D"/>
<path d="M654.5 168.5L660 167.5L676.5 170L684.5 160H693L709.5 170H717.5L726 166L742.5 169L751.5 165L759 162.5L767 164.5L774.5 162.5L782.5 163.5L791 162.5L799.5 165H808.5L817 158L831.5 153.5L843.5 152.5L850 151L858 153.5L866.5 151L869.5 152.5V190H654.5V168.5Z" fill="#041648"/>
<path d="M654.5 172L661 172.5H677.5H686.5H693L709.5 174.5L725.5 173.5L733.5 175H743.5L750.5 176.5L765.5 175.5L779 175L791.5 174L799.5 174.5L807.5 173.5L820 173L824.5 172L832.5 172.5L841 173L848.5 172L856 173L869.5 173.5V190H654.5V172Z" fill="#042114"/>
<path d="M654.5 172.5H676.5H693L709.5 174.5L726 173.5L734 175H743L750 176.5L769.5 175.5L791 174L800 174.5L807.5 173.5L820 173L824.5 172L841.5 173L848.5 172L856 173L869.5 173.5" stroke="#17B877" stroke-width="1.5"/>
<path d="M654.5 168.5L660 167.5L676.5 170L684.5 160H693L709.5 170H718L726 166L742.5 169L751 165L759 162.5L767 164.5L775 162.5L783 163.5L791.5 162.5L799.5 165H808.5L817 158L832.5 153.5L844 152.5L849.5 151L857.5 153.5L866 151L869.5 152.5" stroke="#708FFF" stroke-width="1.5"/>
<path d="M654.5 125L671 147L679.5 138L687 135.5L696 142L704.5 121.5L713 125L722 118L730 121.5L738 117L746 107.5L755.5 101.5L764 112L773 114.5L781 110L790 112L796.5 105.5L806.5 99.5L815 107.5L823 101.5H832L840 92L848.5 98L856 92H865.5L870 95.5" stroke="#F96E8C" stroke-width="1.5"/>
<path d="M654.5 153.5L660 150.5L676.5 158.5L684.5 151.5H701L709.5 158.5H718L726 147L742.5 155L750 145.5L758.5 137.5L767 141.5L775 137.5L783 140L791.5 137.5L799.5 144.5H808L816 126L825 119.5L832.5 111.5L841 110L848.5 106L857 111.5L865 106L869.5 108" stroke="#FFA23E" stroke-width="1.5"/>
<path fill-rule="evenodd" clip-rule="evenodd" d="M663 49C664.182 49 665.352 48.7672 666.444 48.3149C667.536 47.8626 668.528 47.1997 669.364 46.364C670.2 45.5282 670.863 44.5361 671.315 43.4442C671.767 42.3522 672 41.1819 672 40C672 38.8181 671.767 37.6478 671.315 36.5558C670.863 35.4639 670.2 34.4718 669.364 33.636C668.528 32.8003 667.536 32.1374 666.444 31.6851C665.352 31.2328 664.182 31 663 31C660.613 31 658.324 31.9482 656.636 33.636C654.948 35.3239 654 37.6131 654 40C654 42.3869 654.948 44.6761 656.636 46.364C658.324 48.0518 660.613 49 663 49ZM662.768 43.64L667.768 37.64L666.232 36.36L661.932 41.519L659.707 39.293L658.293 40.707L661.293 43.707L662.067 44.481L662.768 43.64Z" fill="#34A853"/>
<path d="M689.375 45H686.233V34.8182H689.514C690.502 34.8182 691.347 35.022 692.05 35.4297C692.752 35.834 693.291 36.4157 693.665 37.1747C694.04 37.9304 694.227 38.8352 694.227 39.8892C694.227 40.9498 694.038 41.8629 693.661 42.6286C693.283 43.3909 692.732 43.9775 692.01 44.3885C691.287 44.7962 690.409 45 689.375 45ZM687.466 43.9062H689.295C690.137 43.9062 690.835 43.7438 691.388 43.419C691.942 43.0942 692.355 42.6319 692.626 42.032C692.898 41.4321 693.034 40.7178 693.034 39.8892C693.034 39.0672 692.9 38.3596 692.631 37.7663C692.363 37.1697 691.962 36.7124 691.428 36.3942C690.895 36.0727 690.23 35.9119 689.435 35.9119H687.466V43.9062ZM699.338 45.1591C698.602 45.1591 697.968 44.9967 697.434 44.6719C696.904 44.3438 696.494 43.8864 696.206 43.2997C695.921 42.7098 695.778 42.0237 695.778 41.2415C695.778 40.4593 695.921 39.7699 696.206 39.1733C696.494 38.5734 696.895 38.1061 697.409 37.7713C697.926 37.4332 698.529 37.2642 699.219 37.2642C699.616 37.2642 700.009 37.3305 700.397 37.4631C700.785 37.5956 701.138 37.8111 701.456 38.1094C701.774 38.4044 702.028 38.7955 702.217 39.2827C702.406 39.7699 702.5 40.3698 702.5 41.0824V41.5795H696.614V40.5653H701.307C701.307 40.1345 701.221 39.75 701.048 39.4119C700.879 39.0739 700.637 38.8071 700.322 38.6115C700.011 38.416 699.643 38.3182 699.219 38.3182C698.751 38.3182 698.347 38.4342 698.006 38.6662C697.668 38.8949 697.407 39.1932 697.225 39.5611C697.043 39.929 696.952 40.3234 696.952 40.7443V41.4205C696.952 41.9972 697.051 42.486 697.25 42.8871C697.452 43.2848 697.732 43.5881 698.09 43.7969C698.448 44.0024 698.864 44.1051 699.338 44.1051C699.646 44.1051 699.925 44.062 700.173 43.9759C700.425 43.8864 700.642 43.7538 700.825 43.5781C701.007 43.3991 701.148 43.1771 701.247 42.9119L702.381 43.2301C702.261 43.6146 702.061 43.9527 701.779 44.2443C701.497 44.5327 701.149 44.758 700.735 44.9205C700.321 45.0795 699.855 45.1591 699.338 45.1591ZM704.285 47.8636V37.3636H705.418V38.5767H705.558C705.644 38.4441 705.763 38.2751 705.915 38.0696C706.071 37.8608 706.293 37.6752 706.582 37.5128C706.873 37.3471 707.268 37.2642 707.765 37.2642C708.408 37.2642 708.975 37.425 709.465 37.7464C709.956 38.0679 710.339 38.5237 710.614 39.1136C710.889 39.7036 711.026 40.3996 711.026 41.2017C711.026 42.0104 710.889 42.7114 710.614 43.3047C710.339 43.8946 709.957 44.352 709.47 44.6768C708.983 44.9983 708.421 45.1591 707.785 45.1591C707.294 45.1591 706.902 45.0779 706.607 44.9155C706.312 44.7498 706.085 44.5625 705.925 44.3537C705.766 44.1416 705.644 43.9659 705.558 43.8267H705.458V47.8636H704.285ZM705.438 41.1818C705.438 41.7585 705.523 42.2673 705.692 42.7081C705.861 43.1456 706.108 43.4886 706.433 43.7372C706.757 43.9825 707.155 44.1051 707.626 44.1051C708.116 44.1051 708.526 43.9759 708.854 43.7173C709.185 43.4555 709.434 43.1042 709.599 42.6634C709.768 42.2192 709.853 41.7254 709.853 41.1818C709.853 40.6449 709.77 40.161 709.604 39.7301C709.442 39.2959 709.195 38.9529 708.864 38.701C708.536 38.4458 708.123 38.3182 707.626 38.3182C707.148 38.3182 706.747 38.4392 706.423 38.6811C706.098 38.9197 705.853 39.2545 705.687 39.6854C705.521 40.1129 705.438 40.6117 705.438 41.1818ZM713.989 34.8182V45H712.816V34.8182H713.989ZM719.241 45.1591C718.551 45.1591 717.946 44.995 717.426 44.6669C716.909 44.3388 716.505 43.8797 716.213 43.2898C715.925 42.6998 715.78 42.0104 715.78 41.2216C715.78 40.4261 715.925 39.7318 716.213 39.1385C716.505 38.5452 716.909 38.0845 717.426 37.7564C717.946 37.4283 718.551 37.2642 719.241 37.2642C719.93 37.2642 720.533 37.4283 721.05 37.7564C721.571 38.0845 721.975 38.5452 722.263 39.1385C722.555 39.7318 722.701 40.4261 722.701 41.2216C722.701 42.0104 722.555 42.6998 722.263 43.2898C721.975 43.8797 721.571 44.3388 721.05 44.6669C720.533 44.995 719.93 45.1591 719.241 45.1591ZM719.241 44.1051C719.764 44.1051 720.195 43.9709 720.533 43.7024C720.871 43.4339 721.122 43.081 721.284 42.6435C721.446 42.206 721.528 41.732 721.528 41.2216C721.528 40.7112 721.446 40.2356 721.284 39.7947C721.122 39.3539 720.871 38.9976 720.533 38.7259C720.195 38.4541 719.764 38.3182 719.241 38.3182C718.717 38.3182 718.286 38.4541 717.948 38.7259C717.61 38.9976 717.36 39.3539 717.197 39.7947C717.035 40.2356 716.954 40.7112 716.954 41.2216C716.954 41.732 717.035 42.206 717.197 42.6435C717.36 43.081 717.61 43.4339 717.948 43.7024C718.286 43.9709 718.717 44.1051 719.241 44.1051ZM724.974 47.8636C724.775 47.8636 724.598 47.8471 724.442 47.8139C724.286 47.7841 724.179 47.7543 724.119 47.7244L724.417 46.6903C724.702 46.7633 724.954 46.7898 725.173 46.7699C725.392 46.75 725.586 46.6522 725.755 46.4766C725.927 46.3042 726.084 46.0241 726.227 45.6364L726.446 45.0398L723.622 37.3636H724.895L727.002 43.4489H727.082L729.19 37.3636H730.463L727.221 46.1136C727.075 46.508 726.895 46.8345 726.679 47.093C726.464 47.3549 726.214 47.5488 725.929 47.6747C725.647 47.8007 725.329 47.8636 724.974 47.8636ZM734.94 45.1591C734.204 45.1591 733.569 44.9967 733.036 44.6719C732.505 44.3438 732.096 43.8864 731.808 43.2997C731.522 42.7098 731.38 42.0237 731.38 41.2415C731.38 40.4593 731.522 39.7699 731.808 39.1733C732.096 38.5734 732.497 38.1061 733.011 37.7713C733.528 37.4332 734.131 37.2642 734.82 37.2642C735.218 37.2642 735.611 37.3305 735.999 37.4631C736.386 37.5956 736.739 37.8111 737.058 38.1094C737.376 38.4044 737.629 38.7955 737.818 39.2827C738.007 39.7699 738.102 40.3698 738.102 41.0824V41.5795H732.215V40.5653H736.908C736.908 40.1345 736.822 39.75 736.65 39.4119C736.481 39.0739 736.239 38.8071 735.924 38.6115C735.612 38.416 735.245 38.3182 734.82 38.3182C734.353 38.3182 733.949 38.4342 733.607 38.6662C733.269 38.8949 733.009 39.1932 732.827 39.5611C732.644 39.929 732.553 40.3234 732.553 40.7443V41.4205C732.553 41.9972 732.653 42.486 732.852 42.8871C733.054 43.2848 733.334 43.5881 733.692 43.7969C734.05 44.0024 734.466 44.1051 734.94 44.1051C735.248 44.1051 735.526 44.062 735.775 43.9759C736.027 43.8864 736.244 43.7538 736.426 43.5781C736.608 43.3991 736.749 43.1771 736.849 42.9119L737.982 43.2301C737.863 43.6146 737.662 43.9527 737.381 44.2443C737.099 44.5327 736.751 44.758 736.337 44.9205C735.922 45.0795 735.457 45.1591 734.94 45.1591ZM742.77 45.1591C742.134 45.1591 741.572 44.9983 741.085 44.6768C740.597 44.352 740.216 43.8946 739.941 43.3047C739.666 42.7114 739.528 42.0104 739.528 41.2017C739.528 40.3996 739.666 39.7036 739.941 39.1136C740.216 38.5237 740.599 38.0679 741.089 37.7464C741.58 37.425 742.147 37.2642 742.79 37.2642C743.287 37.2642 743.68 37.3471 743.968 37.5128C744.26 37.6752 744.482 37.8608 744.634 38.0696C744.79 38.2751 744.911 38.4441 744.997 38.5767H745.097V34.8182H746.27V45H745.136V43.8267H744.997C744.911 43.9659 744.788 44.1416 744.629 44.3537C744.47 44.5625 744.243 44.7498 743.948 44.9155C743.653 45.0779 743.26 45.1591 742.77 45.1591ZM742.929 44.1051C743.4 44.1051 743.797 43.9825 744.122 43.7372C744.447 43.4886 744.694 43.1456 744.863 42.7081C745.032 42.2673 745.116 41.7585 745.116 41.1818C745.116 40.6117 745.034 40.1129 744.868 39.6854C744.702 39.2545 744.457 38.9197 744.132 38.6811C743.807 38.4392 743.406 38.3182 742.929 38.3182C742.432 38.3182 742.018 38.4458 741.686 38.701C741.358 38.9529 741.111 39.2959 740.945 39.7301C740.783 40.161 740.702 40.6449 740.702 41.1818C740.702 41.7254 740.785 42.2192 740.95 42.6634C741.119 43.1042 741.368 43.4555 741.696 43.7173C742.027 43.9759 742.438 44.1051 742.929 44.1051Z" fill="#34A853"/>
</svg>
