<svg width="33" height="36" viewBox="0 0 33 36" fill="none" xmlns="http://www.w3.org/2000/svg">
<path d="M31.8982 8.20941L32.6769 9.07588C32.7793 8.96219 32.8606 8.82714 32.916 8.67846C32.9715 8.52978 33 8.37039 33 8.20941C33 8.04844 32.9715 7.88904 32.916 7.74036C32.8606 7.59168 32.7793 7.45663 32.6769 7.34294L31.8982 8.20941ZM1.10184 27.7906L0.323128 26.9241C0.220701 27.0378 0.139436 27.1729 0.0839888 27.3215C0.0285412 27.4702 0 27.6296 0 27.7906C0 27.9516 0.0285412 28.111 0.0839888 28.2596C0.139436 28.4083 0.220701 28.5434 0.323128 28.6571L1.10184 27.7906ZM24.5202 1.73293L31.1195 9.07588L32.6769 7.34294L26.0777 0L24.5202 1.73293ZM31.1195 7.34294L24.5202 14.6859L26.0777 16.4188L32.6769 9.07588L31.1195 7.34294ZM8.47976 34.2671L1.88054 26.9241L0.323128 28.6571L6.92234 36L8.47976 34.2671ZM1.88054 28.6571L8.47976 21.3141L6.92234 19.5812L0.323128 26.9241L1.88054 28.6571ZM1.10184 29.0144H25.299V26.5668H1.10184V29.0144ZM32.998 20.4476V16.7762H30.7983V20.4476H32.998ZM25.299 29.0144C27.3409 29.0144 29.2992 28.1118 30.743 26.5053C32.1869 24.8987 32.998 22.7197 32.998 20.4476H30.7983C30.7983 22.0705 30.2189 23.627 29.1876 24.7745C28.1562 25.9221 26.7575 26.5668 25.299 26.5668V29.0144ZM31.8982 6.98559H7.70105V9.43323H31.8982V6.98559ZM0.00196609 15.5524V19.2238H2.2017V15.5524H0.00196609ZM7.70105 6.98559C5.65913 6.98559 3.70083 7.88815 2.25698 9.49473C0.813117 11.1013 0.00196609 13.2803 0.00196609 15.5524H2.2017C2.2017 13.9295 2.7811 12.373 3.81243 11.2255C4.84375 10.0779 6.24253 9.43323 7.70105 9.43323V6.98559Z" fill="white"/>
</svg>
