<svg width="28" height="33" viewBox="0 0 28 33" fill="none" xmlns="http://www.w3.org/2000/svg">
<path d="M28 7.63837V9.24645C27.998 9.99491 27.8241 10.7326 27.4921 11.4013C27.1699 12.0757 26.6971 12.6648 26.1111 13.1219C25.5257 13.5739 24.8477 13.8872 24.127 14.0385C23.8085 14.1028 23.4857 14.135 23.1587 14.135C22.745 14.135 22.3376 14.0868 21.9365 13.9903L15.2063 12.0606V25.279C15.2105 27.0525 14.6105 28.7731 13.5075 30.1503C12.4046 31.5276 10.8663 32.477 9.15241 32.8384C7.43855 33.1998 5.6541 32.9509 4.10036 32.1338C2.54661 31.3168 1.31877 29.9816 0.624155 28.3537C-0.0704631 26.7257 -0.189304 24.9049 0.287698 23.1985C0.764701 21.4921 1.80832 20.0047 3.24235 18.9875C4.67638 17.9703 6.41295 17.4856 8.15886 17.6152C9.90477 17.7448 11.5531 18.4808 12.8254 19.6989V1.15782C12.8076 1.05137 12.8076 0.94265 12.8254 0.8362V0.707554C12.9022 0.528934 13.0201 0.371518 13.1692 0.248436C13.3183 0.125354 13.4943 0.0401739 13.6825 0H14.3809L24.381 2.87846C25.401 3.15663 26.3007 3.7705 26.9386 4.62346C27.5766 5.47642 27.9164 6.52005 27.9048 7.59013L28 7.63837Z" fill="white"/>
</svg>
