<svg width="44" height="44" viewBox="0 0 44 44" fill="none" xmlns="http://www.w3.org/2000/svg">
<path fill-rule="evenodd" clip-rule="evenodd" d="M44 22C44 27.8348 41.6822 33.4306 37.5564 37.5564C33.4306 41.6822 27.8348 44 22 44C16.1652 44 10.5695 41.6822 6.44365 37.5564C2.31785 33.4306 0 27.8348 0 22C0 16.1652 2.31785 10.5695 6.44365 6.44365C10.5695 2.31785 16.1652 0 22 0C27.8348 0 33.4306 2.31785 37.5564 6.44365C41.6822 10.5695 44 16.1652 44 22ZM13.75 16.5C13.75 15.7707 14.0397 15.0712 14.5555 14.5555C15.0712 14.0397 15.7707 13.75 16.5 13.75C17.2293 13.75 17.9288 14.0397 18.4445 14.5555C18.9603 15.0712 19.25 15.7707 19.25 16.5V27.5C19.25 28.2293 18.9603 28.9288 18.4445 29.4445C17.9288 29.9603 17.2293 30.25 16.5 30.25C15.7707 30.25 15.0712 29.9603 14.5555 29.4445C14.0397 28.9288 13.75 28.2293 13.75 27.5V16.5ZM27.5 13.75C26.7707 13.75 26.0712 14.0397 25.5555 14.5555C25.0397 15.0712 24.75 15.7707 24.75 16.5V27.5C24.75 28.2293 25.0397 28.9288 25.5555 29.4445C26.0712 29.9603 26.7707 30.25 27.5 30.25C28.2293 30.25 28.9288 29.9603 29.4445 29.4445C29.9603 28.9288 30.25 28.2293 30.25 27.5V16.5C30.25 15.7707 29.9603 15.0712 29.4445 14.5555C28.9288 14.0397 28.2293 13.75 27.5 13.75Z" fill="white"/>
</svg>
