<svg width="40" height="36" viewBox="0 0 40 36" fill="none" xmlns="http://www.w3.org/2000/svg">
<path d="M39.2916 7.15723C39.1923 6.91823 39.0469 6.70112 38.8637 6.51828L32.9475 0.602051C32.7656 0.413698 32.5479 0.263461 32.3073 0.160107C32.0667 0.0567521 31.808 0.00234987 31.5461 7.44591e-05C31.2843 -0.00220095 31.0246 0.047696 30.7822 0.146854C30.5399 0.246011 30.3197 0.392444 30.1345 0.577608C29.9493 0.762771 29.8029 0.982957 29.7038 1.22532C29.6046 1.46768 29.5547 1.72736 29.557 1.98921C29.5593 2.25106 29.6137 2.50984 29.717 2.75044C29.8204 2.99104 29.9706 3.20865 30.159 3.39057L32.7089 5.94046H26.1596C24.4566 5.94038 22.7826 6.38137 21.3006 7.22049C19.8187 8.05961 18.5794 9.26824 17.7033 10.7287L10.4658 22.7879C9.94055 23.6637 9.19752 24.3886 8.30903 24.8922C7.42054 25.3957 6.41684 25.6606 5.3956 25.6612H1.97208C1.44905 25.6612 0.947443 25.869 0.577608 26.2388C0.207772 26.6087 0 27.1103 0 27.6333C0 28.1563 0.207772 28.6579 0.577608 29.0278C0.947443 29.3976 1.44905 29.6054 1.97208 29.6054H5.39363C7.09664 29.6055 8.77064 29.1645 10.2526 28.3253C11.7345 27.4862 12.9739 26.2776 13.8499 24.8172L21.0874 12.7579C21.6127 11.8821 22.3557 11.1572 23.2442 10.6537C24.1327 10.1502 25.1364 9.88522 26.1576 9.88461H32.7049L30.157 12.4345C29.7978 12.8064 29.599 13.3046 29.6035 13.8217C29.608 14.3387 29.8154 14.8334 30.181 15.199C30.5466 15.5646 31.0413 15.772 31.5583 15.7765C32.0754 15.781 32.5736 15.5823 32.9455 15.223L38.8617 9.30679C39.0452 9.12387 39.1909 8.90659 39.2904 8.66736C39.3898 8.42812 39.4412 8.17163 39.4415 7.91254M39.2916 7.15723C39.39 7.39487 39.4409 7.64944 39.4415 7.90662L39.2916 7.15723Z" fill="white"/>
<path d="M38.8617 29.0266L32.9475 34.9428C32.5774 35.3126 32.0757 35.5202 31.5525 35.52C31.0294 35.5198 30.5277 35.3118 30.158 34.9418C29.7882 34.5718 29.5806 34.07 29.5807 33.5469C29.5809 33.0237 29.7889 32.5221 30.159 32.1523L32.7089 29.6024H26.1596C24.4566 29.6025 22.7826 29.1615 21.3006 28.3224C19.8187 27.4833 18.5794 26.2746 17.7033 24.8142L10.4658 12.755C9.94055 11.8792 9.19752 11.1542 8.30903 10.6507C7.42054 10.1472 6.41684 9.88225 5.3956 9.88165H1.97208C1.44905 9.88165 0.947443 9.67388 0.577608 9.30404C0.207772 8.93421 0 8.4326 0 7.90958C0 7.38655 0.207772 6.88494 0.577608 6.51511C0.947443 6.14527 1.44905 5.9375 1.97208 5.9375H5.39363C7.09664 5.93742 8.77064 6.37841 10.2526 7.21753C11.7345 8.05665 12.9739 9.26528 13.8499 10.7257L21.0874 22.7849C21.6127 23.6608 22.3557 24.3857 23.2442 24.8892C24.1327 25.3927 25.1364 25.6577 26.1576 25.6583H32.7049L30.157 23.1084C29.7978 22.7364 29.599 22.2383 29.6035 21.7212C29.608 21.2041 29.8154 20.7095 30.181 20.3439C30.5466 19.9782 31.0413 19.7708 31.5583 19.7663C32.0754 19.7618 32.5736 19.9606 32.9455 20.3199L38.8617 26.2361C39.2463 26.6187 39.4376 27.1235 39.4395 27.6244V27.6303C39.4395 27.8898 39.3882 28.1466 39.2888 28.3862C39.1893 28.6258 39.0455 28.8434 38.8617 29.0266Z" fill="white"/>
</svg>
